<svg width="48" height="48" viewBox="0 0 48 48" fill="none" xmlns="http://www.w3.org/2000/svg">
<rect width="48" height="48" fill="#FFFF"/>
<g clip-path="url(#clip0_0_1)">
<rect width="360" height="640" transform="translate(-308 -270)" fill="white"/>
<rect x="-308" y="-11" width="360" height="94" fill="white"/>
<circle cx="12" cy="36" r="24" fill="white" fill-opacity="0.01"/>
<path fill-rule="evenodd" clip-rule="evenodd" d="M1.99634 27C1.99634 27.55 2.44634 28 2.99634 28H3.99634L7.59634 35.59L6.24634 38.03C5.51634 39.37 6.47634 41 7.99634 41H18.9963C19.5463 41 19.9963 40.55 19.9963 40C19.9963 39.45 19.5463 39 18.9963 39H7.99634L9.09634 37H16.5463C17.2963 37 17.9563 36.59 18.2963 35.97L21.8763 29.48C22.2463 28.82 21.7663 28 21.0063 28H6.20634L5.53634 26.57C5.37634 26.22 5.01634 26 4.63634 26H2.99634C2.44634 26 1.99634 26.45 1.99634 27ZM7.99634 42C6.89634 42 6.00634 42.9 6.00634 44C6.00634 45.1 6.89634 46 7.99634 46C9.09634 46 9.99634 45.1 9.99634 44C9.99634 42.9 9.09634 42 7.99634 42ZM16.0063 44C16.0063 42.9 16.8963 42 17.9963 42C19.0963 42 19.9963 42.9 19.9963 44C19.9963 45.1 19.0963 46 17.9963 46C16.8963 46 16.0063 45.1 16.0063 44Z" fill="#414046"/>
<mask id="mask0_0_1" style="mask-type:alpha" maskUnits="userSpaceOnUse" x="1" y="26" width="22" height="20">
<path fill-rule="evenodd" clip-rule="evenodd" d="M1.99634 27C1.99634 27.55 2.44634 28 2.99634 28H3.99634L7.59634 35.59L6.24634 38.03C5.51634 39.37 6.47634 41 7.99634 41H18.9963C19.5463 41 19.9963 40.55 19.9963 40C19.9963 39.45 19.5463 39 18.9963 39H7.99634L9.09634 37H16.5463C17.2963 37 17.9563 36.59 18.2963 35.97L21.8763 29.48C22.2463 28.82 21.7663 28 21.0063 28H6.20634L5.53634 26.57C5.37634 26.22 5.01634 26 4.63634 26H2.99634C2.44634 26 1.99634 26.45 1.99634 27ZM7.99634 42C6.89634 42 6.00634 42.9 6.00634 44C6.00634 45.1 6.89634 46 7.99634 46C9.09634 46 9.99634 45.1 9.99634 44C9.99634 42.9 9.09634 42 7.99634 42ZM16.0063 44C16.0063 42.9 16.8963 42 17.9963 42C19.0963 42 19.9963 42.9 19.9963 44C19.9963 45.1 19.0963 46 17.9963 46C16.8963 46 16.0063 45.1 16.0063 44Z" fill="white"/>
</mask>
<g mask="url(#mask0_0_1)">
</g>
<circle cx="24" cy="24" r="24" fill="white" fill-opacity="0.01"/>
<path fill-rule="evenodd" clip-rule="evenodd" d="M14 24C14 18.48 18.48 14 24 14C29.52 14 34 18.48 34 24C34 29.52 29.52 34 24 34C18.48 34 14 29.52 14 24ZM25 25H28C28.55 25 29 24.55 29 24C29 23.45 28.55 23 28 23H25V20C25 19.45 24.55 19 24 19C23.45 19 23 19.45 23 20V23H20C19.45 23 19 23.45 19 24C19 24.55 19.45 25 20 25H23V28C23 28.55 23.45 29 24 29C24.55 29 25 28.55 25 28V25Z" fill="#0277BD"/>
<mask id="mask1_0_1" style="mask-type:alpha" maskUnits="userSpaceOnUse" x="14" y="14" width="20" height="20">
<path fill-rule="evenodd" clip-rule="evenodd" d="M14 24C14 18.48 18.48 14 24 14C29.52 14 34 18.48 34 24C34 29.52 29.52 34 24 34C18.48 34 14 29.52 14 24ZM25 25H28C28.55 25 29 24.55 29 24C29 23.45 28.55 23 28 23H25V20C25 19.45 24.55 19 24 19C23.45 19 23 19.45 23 20V23H20C19.45 23 19 23.45 19 24C19 24.55 19.45 25 20 25H23V28C23 28.55 23.45 29 24 29C24.55 29 25 28.55 25 28V25Z" fill="white"/>
</mask>
<g mask="url(#mask1_0_1)">
<rect x="12" y="12" width="101" height="101" fill="#0277BD"/>
</g>
</g>
<defs>
<clipPath id="clip0_0_1">
<rect width="360" height="640" fill="white" transform="translate(-308 -270)"/>
</clipPath>
</defs>
</svg>
